<?xml version="1.0" encoding="UTF-8" standalone="no"?>
<svg width="100px" height="112px" viewBox="0 0 100 112" version="1.1" xmlns="http://www.w3.org/2000/svg" xmlns:xlink="http://www.w3.org/1999/xlink">
    <!-- Generator: Sketch 42 (36781) - http://www.bohemiancoding.com/sketch -->
    <title>Page 1</title>
    <desc>Created with Sketch.</desc>
    <defs>
        <polygon id="path-1" points="50.5338115 0 0.0722787648 0 0.0722787648 66.3604938 50.5338115 66.3604938 50.5338115 -1.75442651e-14"></polygon>
    </defs>
    <g id="Page-1" stroke="none" stroke-width="1" fill="none" fill-rule="evenodd">
        <g id="Order-info-Copy" transform="translate(-216.000000, -1026.000000)">
            <g id="Page-1" transform="translate(216.000000, 1026.000000)">
                <g id="Group-3" transform="translate(24.691358, 0.000247)">
                    <mask id="mask-2" fill="white">
                        <use xlink:href="#path-1"></use>
                    </mask>
                    <g id="Clip-2"></g>
                    <path d="M3.18148148,43.7444444 C4.31481481,45.4802469 5.54691358,45.6740741 6.53950617,45.5617284 C7.62222222,58.7814815 17.7777778,66.3604938 25.3037037,66.3604938 C32.8296296,66.3604938 42.982716,58.7814815 44.0666667,45.5604938 C45.0604938,45.6740741 46.291358,45.4802469 47.4234568,43.7432099 C50.3950617,39.1925926 52.1753086,30.8716049 48.3555556,30.6197531 C49.4481481,25.3679012 49.1012346,18.6580247 46.8382716,13.4444444 C44.9061728,8.98641975 41.5740741,6.14074074 36.554321,7.33333333 C25.0259259,-9.89012346 1.41481481,7.88888889 0.859259259,13.4444444 L3.76790123,13.4444444 C1.50740741,18.6580247 1.15925926,25.3679012 2.25061728,30.6197531 C-1.5691358,30.8716049 0.211111111,39.1925926 3.18148148,43.7444444" id="Fill-1" fill="#404040" mask="url(#mask-2)"></path>
                </g>
                <g id="Group-6" transform="translate(0.000000, 64.197778)" fill="#404040">
                    <path d="M67.1308642,0.696296296 C66.8407407,0.155555556 66.5037037,0.160493827 66.3098765,0.744444444 L57.0074074,28.654321 L55.2864198,18.1395062 L57.7123457,14.5049383 C58.0506173,13.9962963 58.0506173,13.1641975 57.7123457,12.6555556 L54.7777778,8.25679012 C54.4395062,7.74814815 53.662963,7.3308642 53.0506173,7.3308642 L46.9407407,7.3308642 C46.3296296,7.3308642 45.5518519,7.74814815 45.2135802,8.25679012 L42.2790123,12.6555556 C41.9407407,13.162963 41.9407407,13.9962963 42.2790123,14.5049383 L44.7037037,18.1395062 L42.982716,28.654321 L33.6802469,0.745679012 C33.4851852,0.162962963 33.1493827,0.156790123 32.8592593,0.7 C26.4197531,12.6790123 0.398765432,-1.58641975 0,45.8024691 C-0.0049382716,46.417284 0.491358025,46.9135802 1.10617284,46.9135802 L39.9950617,46.9135802 L59.9950617,46.9135802 L98.8839506,46.9135802 C99.4987654,46.9135802 99.9950617,46.417284 99.9901235,45.8024691 C99.591358,-1.58641975 73.5703704,12.6790123 67.1308642,0.696296296" id="Fill-4"></path>
                </g>
            </g>
        </g>
    </g>
</svg>