<?xml version="1.0" encoding="UTF-8" standalone="no"?>
<svg width="100px" height="114px" viewBox="0 0 100 114" version="1.1" xmlns="http://www.w3.org/2000/svg" xmlns:xlink="http://www.w3.org/1999/xlink">
    <!-- Generator: Sketch 42 (36781) - http://www.bohemiancoding.com/sketch -->
    <title>Page 1</title>
    <desc>Created with Sketch.</desc>
    <defs>
        <polygon id="path-1" points="49.6431445 113.924051 99.2860759 113.924051 99.2860759 0 49.6431445 0 0.000213038974 0 0.000213038974 113.924051 49.6431445 113.924051"></polygon>
    </defs>
    <g id="Page-1" stroke="none" stroke-width="1" fill="none" fill-rule="evenodd">
        <g id="Order-info-Copy" transform="translate(-670.000000, -1023.000000)">
            <g id="Page-1" transform="translate(670.000000, 1023.000000)">
                <mask id="mask-2" fill="white">
                    <use xlink:href="#path-1"></use>
                </mask>
                <g id="Clip-2"></g>
                <path d="M77.8334177,87.2924051 C75.7903797,87.2924051 74.1346835,85.6367089 74.1346835,83.5936709 C74.1346835,81.5506329 75.7903797,79.8949367 77.8334177,79.8949367 C79.8764557,79.8949367 81.5321519,81.5506329 81.5321519,83.5936709 C81.5321519,85.6367089 79.8764557,87.2924051 77.8334177,87.2924051 L77.8334177,87.2924051 Z M39.8448101,63.4329114 L39.8448101,67.9607595 L44.4726582,67.9607595 L44.4726582,63.4329114 C47.9270886,63.064557 50.5435443,62.0582278 52.3207595,60.4151899 C54.0979747,58.7721519 54.9865823,56.2405063 54.9865823,52.8189873 C54.9865823,50.6392405 54.6093671,48.8962025 53.8549367,47.5873418 C53.1005063,46.2797468 52.1524051,45.2227848 51.0118987,44.4189873 C49.8726582,43.6139241 48.6486076,42.9848101 47.3397468,42.5316456 C46.0321519,42.0797468 44.8081013,41.6101266 43.6675949,41.1240506 C42.5283544,40.6367089 41.5802532,40.0582278 40.8258228,39.3886076 C40.0713924,38.7177215 39.6941772,37.7949367 39.6941772,36.621519 C39.6941772,35.8506329 39.9283544,35.1379747 40.3979747,34.4835443 C40.8675949,33.8291139 41.6055696,33.5025316 42.6118987,33.5025316 C43.516962,33.5025316 44.1878481,33.8797468 44.6232911,34.6341772 C45.06,35.3886076 45.2777215,36.2696203 45.2777215,37.2746835 L45.2777215,38.0303797 L54.0308861,38.0303797 C54.0308861,34.5759494 53.2764557,32.0012658 51.7675949,30.3075949 C50.2574684,28.6151899 47.8270886,27.6 44.4726582,27.264557 L44.4726582,24.3468354 L39.8448101,24.3468354 L39.8448101,27.264557 C33.7081013,28.2708861 30.6397468,31.9101266 30.6397468,38.1810127 C30.6397468,40.2265823 30.9992405,41.8860759 31.7207595,43.1607595 C32.4422785,44.435443 33.3473418,45.4670886 34.4372152,46.2544304 C35.5270886,47.043038 36.7093671,47.6797468 37.9840506,48.1658228 C39.2574684,48.6518987 40.4397468,49.1392405 41.5296203,49.6253165 C42.6194937,50.1113924 43.5258228,50.6898734 44.2460759,51.3607595 C44.9675949,52.0316456 45.3283544,52.9367089 45.3283544,54.0772152 C45.3283544,54.9822785 45.0675949,55.7531646 44.5486076,56.3911392 C44.0283544,57.0278481 43.2827848,57.3468354 42.3093671,57.3468354 C41.3713924,57.3468354 40.6156962,57.0620253 40.0460759,56.4911392 C39.4764557,55.921519 39.1903797,54.8822785 39.1903797,53.3721519 L39.1903797,52.4164557 L30.1359494,52.4164557 L30.1359494,53.7746835 C30.1359494,56.9607595 30.9574684,59.2835443 32.6005063,60.7417722 C34.2448101,62.2012658 36.6587342,63.0987342 39.8448101,63.4329114 L39.8448101,63.4329114 Z M52.638481,14.0556962 C52.8663291,14.8088608 53.1675949,15.5506329 53.5207595,16.2746835 L33.1802532,16.2746835 L33.1865823,16.2506329 C33.3498734,15.735443 33.4726582,15.2265823 33.5587342,14.7265823 L33.7232911,14.0556962 L52.638481,14.0556962 Z M52.2891139,12.5759494 C52.1675949,11.8405063 52.1220253,11.0987342 52.1713924,10.356962 L33.538481,10.356962 L33.5625316,10.6278481 C33.6612658,11.2278481 33.7232911,11.8620253 33.7321519,12.521519 L33.7372152,12.5759494 L52.2891139,12.5759494 Z M69.695443,113.924051 L99.2865823,113.924051 L99.2865823,76.935443 L69.695443,76.935443 L69.695443,113.924051 Z M48.9827848,91.6481013 L48.9827848,88.7721519 L32.7144304,88.7721519 C30.2435443,88.7721519 28.2688608,86.7848101 28.2688608,84.3329114 C28.2688608,81.8873418 30.2587342,79.8949367 32.7144304,79.8949367 L54.5270886,79.8949367 L64.5182278,79.8949367 L64.5182278,105.046835 L48.9827848,105.046835 L48.9827848,104.956962 C15.203038,105.074684 0.995443038,95.7455696 0.199240506,93.5379747 C-0.656455696,91.1658228 1.29544304,87.4835443 5.12329114,87.4835443 C8.95240506,87.4835443 20.0562025,88.6544304 20.0562025,88.6544304 C20.0562025,88.6544304 29.4675949,91.6481013 38.1118987,91.6481013 L48.9827848,91.6481013 Z M52.638481,14.0556962 C52.4903797,13.5670886 52.3726582,13.0734177 52.2891139,12.5759494 L56.76,12.5759494 C57.3675949,12.5759494 57.86,12.0835443 57.86,11.4658228 C57.86,10.8531646 57.3511392,10.356962 56.7511392,10.356962 L52.1713924,10.356962 C52.2853165,8.61012658 52.9182278,6.85949367 54.281519,5.17848101 L54.5194937,5.17848101 C55.9562025,5.17848101 57.1194937,4.02911392 57.1194937,2.58860759 C57.1194937,1.15949367 55.96,0 54.5194937,0 L30.1296203,0 C28.6929114,0 27.5296203,1.14936709 27.5296203,2.58860759 C27.5296203,4.01898734 28.6891139,5.17848101 30.1296203,5.17848101 L31.4739241,5.17848101 C31.7865823,5.64936709 33.0916456,7.74936709 33.5625316,10.6278481 L33.7321519,12.521519 C33.7422785,13.2303797 33.6916456,13.9683544 33.5587342,14.7265823 L33.1865823,16.2506329 C32.5410127,18.2860759 31.2524051,20.4177215 28.9612658,22.4772152 C19.3220253,27.3341772 12.7334177,37.1443038 12.7334177,48.4544304 C12.7334177,64.5924051 25.1751899,73.1607595 41.7220253,73.1607595 C58.2675949,73.1607595 72.6549367,64.5924051 72.6549367,48.4544304 C72.6549367,38.8189873 67.8726582,30.2721519 60.4967089,24.9493671 C58.3751899,23.0468354 55.2840506,19.8848101 53.5207595,16.2746835 L56.7511392,16.2746835 C57.3637975,16.2746835 57.86,15.7822785 57.86,15.164557 C57.86,14.5518987 57.3562025,14.0556962 56.76,14.0556962 L52.638481,14.0556962 Z" id="Fill-1" fill="#404040" mask="url(#mask-2)"></path>
            </g>
        </g>
    </g>
</svg>