<?xml version="1.0" encoding="UTF-8" standalone="no"?>
<svg width="100px" height="100px" viewBox="0 0 100 100" version="1.1" xmlns="http://www.w3.org/2000/svg" xmlns:xlink="http://www.w3.org/1999/xlink">
    <!-- Generator: Sketch 42 (36781) - http://www.bohemiancoding.com/sketch -->
    <title>Page 1</title>
    <desc>Created with Sketch.</desc>
    <defs></defs>
    <g id="Page-1" stroke="none" stroke-width="1" fill="none" fill-rule="evenodd">
        <g id="Order-info-Copy" transform="translate(-1086.000000, -1037.000000)" fill="#404040">
            <g id="Page-1" transform="translate(1086.000000, 1037.000000)">
                <path d="M87.7088889,52.2911111 C86.4433333,52.2911111 85.4177778,51.2655556 85.4177778,50 C85.4177778,48.7344444 86.4433333,47.7088889 87.7088889,47.7088889 C88.9744444,47.7088889 90,48.7344444 90,50 C90,51.2655556 88.9744444,52.2911111 87.7088889,52.2911111 M78.2844444,24.9555556 C77.39,25.85 75.9388889,25.85 75.0444444,24.9555556 C74.15,24.0611111 74.15,22.61 75.0444444,21.7155556 C75.9388889,20.8211111 77.39,20.8211111 78.2844444,21.7155556 C79.1788889,22.61 79.1788889,24.0611111 78.2844444,24.9555556 M78.2844444,78.2844444 C77.39,79.1788889 75.9388889,79.1788889 75.0444444,78.2844444 C74.15,77.39 74.15,75.9388889 75.0444444,75.0444444 C75.9388889,74.15 77.39,74.15 78.2844444,75.0444444 C79.1788889,75.9388889 79.1788889,77.39 78.2844444,78.2844444 M50,57.8155556 C46.4633333,57.8155556 43.4722222,55.4533333 42.5111111,52.2244444 L28.31,52.2244444 C27.0833333,52.2244444 26.0877778,51.2288889 26.0877778,50.0022222 C26.0877778,48.7755556 27.0833333,47.78 28.31,47.78 L42.5111111,47.78 C43.26,45.2555556 45.25,43.2644444 47.7733333,42.5122222 L47.7733333,23.3688889 C47.7733333,22.1422222 48.7688889,21.1466667 49.9955556,21.1466667 C51.2222222,21.1466667 52.2177778,22.1422222 52.2177778,23.3688889 L52.2177778,42.5088889 C55.45,43.4666667 57.8166667,46.46 57.8166667,50 C57.8155556,54.31 54.31,57.8155556 50,57.8155556 M50,90 C48.7344444,90 47.7088889,88.9744444 47.7088889,87.7088889 C47.7088889,86.4433333 48.7344444,85.4177778 50,85.4177778 C51.2655556,85.4177778 52.2911111,86.4433333 52.2911111,87.7088889 C52.2911111,88.9744444 51.2655556,90 50,90 M24.9555556,24.9555556 C24.0611111,25.85 22.61,25.85 21.7155556,24.9555556 C20.8211111,24.0611111 20.8211111,22.61 21.7155556,21.7155556 C22.61,20.8211111 24.0611111,20.8211111 24.9555556,21.7155556 C25.85,22.61 25.85,24.0611111 24.9555556,24.9555556 M24.9555556,78.2844444 C24.0611111,79.1788889 22.61,79.1788889 21.7155556,78.2844444 C20.8211111,77.39 20.8211111,75.9388889 21.7155556,75.0444444 C22.61,74.15 24.0611111,74.15 24.9555556,75.0444444 C25.85,75.9388889 25.85,77.39 24.9555556,78.2844444 M50,10 C51.2655556,10 52.2911111,11.0255556 52.2911111,12.2911111 C52.2911111,13.5566667 51.2655556,14.5811111 50,14.5811111 C48.7344444,14.5811111 47.7088889,13.5555556 47.7088889,12.29 C47.7088889,11.0244444 48.7344444,10 50,10 M12.2911111,52.2911111 C11.0255556,52.2911111 10,51.2655556 10,50 C10,48.7344444 11.0255556,47.7088889 12.2911111,47.7088889 C13.5566667,47.7088889 14.5822222,48.7344444 14.5822222,50 C14.5822222,51.2655556 13.5555556,52.2911111 12.2911111,52.2911111 M50,0 C22.43,0 0,22.43 0,50 C0,77.57 22.43,100 50,100 C77.57,100 100,77.57 100,50 C100,22.43 77.57,0 50,0" id="Fill-1"></path>
                <path d="M50,46.6288889 C48.1466667,46.6288889 46.6388889,48.1333333 46.63,49.9855556 C46.63,49.9911111 46.6322222,49.9966667 46.6322222,50.0033333 C46.6322222,50.0088889 46.6311111,50.0133333 46.6311111,50.0188889 C46.6411111,51.87 48.1477778,53.3733333 50.0011111,53.3733333 C51.86,53.3733333 53.3722222,51.8611111 53.3722222,50.0022222 C53.3722222,48.1433333 51.8588889,46.6288889 50,46.6288889" id="Fill-3"></path>
            </g>
        </g>
    </g>
</svg>